<svg width="255" height="37" viewBox="0 0 255 37" fill="none" xmlns="http://www.w3.org/2000/svg">
<path d="M11.7398 18.4869L19.7671 2.78556H15.709L9.94277 14.2837L4.49251 2.78556H0L8.01741 18.4869H11.7398Z" fill="#00F729"/>
<path d="M20.942 18.4869L26.6885 6.92104L32.435 18.4869H36.572L28.5447 2.78556H24.8224L16.805 18.4869H20.942Z" fill="#00F729"/>
<path d="M52.8537 18.4869V15.1244H42.4172V2.78556H38.5468V18.4869H52.8537Z" fill="#00F729"/>
<path d="M63.0334 18.912C64.1788 18.912 65.2748 18.7767 66.3411 18.4965C67.3976 18.2163 68.3455 17.7718 69.1847 17.1824C70.024 16.5834 70.6954 15.8104 71.1891 14.8731C71.6828 13.9262 71.9296 12.8054 71.9296 11.4913V2.78556H68.0591V11.4913C68.0591 12.3126 67.8222 12.989 67.3581 13.5301C66.8842 14.0615 66.272 14.4577 65.5019 14.7282C64.7416 14.9891 63.9122 15.1244 63.0334 15.1244C62.1646 15.1244 61.3352 14.9891 60.5749 14.7089C59.8047 14.4383 59.1827 14.0325 58.7187 13.5011C58.2546 12.96 58.0176 12.2933 58.0176 11.4913V2.78556H54.1471V11.4913C54.1471 12.8054 54.394 13.9262 54.8877 14.8731C55.3814 15.8104 56.0429 16.5834 56.8821 17.1824C57.7214 17.7718 58.6791 18.2163 59.7356 18.4965C60.7921 18.7767 61.898 18.912 63.0334 18.912Z" fill="#00F729"/>
<path d="M77.3799 18.4869L83.1263 6.92104L88.8728 18.4869H93.0099L84.9826 2.78556H81.2602L73.2428 18.4869H77.3799Z" fill="#00F729"/>
<path d="M101.363 18.4869V6.14805H108.324V2.78556H90.5415V6.14805H97.4925V18.4869H101.363Z" fill="#00F729"/>
<path d="M114.179 18.4869V2.78556H110.309V18.4869H114.179Z" fill="#00F729"/>
<path d="M125.909 18.912C127.706 18.912 129.335 18.5545 130.816 17.8395C132.287 17.1245 133.472 16.1389 134.351 14.8925C135.23 13.6364 135.674 12.2257 135.674 10.641C135.674 9.04675 135.23 7.63605 134.351 6.38961C133.472 5.1335 132.287 4.15761 130.816 3.44259C129.335 2.71792 127.706 2.36041 125.909 2.36041C124.122 2.36041 122.493 2.71792 121.012 3.44259C119.54 4.15761 118.356 5.1335 117.477 6.38961C116.598 7.63605 116.154 9.04675 116.154 10.641C116.154 12.2257 116.598 13.6364 117.477 14.8925C118.356 16.1389 119.54 17.1245 121.012 17.8395C122.493 18.5545 124.122 18.912 125.909 18.912ZM125.909 15.2886C124.872 15.2886 123.905 15.105 123.006 14.7379C122.108 14.361 121.387 13.8296 120.844 13.1339C120.301 12.4382 120.024 11.6073 120.024 10.641C120.024 9.66514 120.301 8.83418 120.844 8.13849C121.387 7.4428 122.108 6.91137 123.006 6.54421C123.905 6.16737 124.872 5.98379 125.909 5.98379C126.955 5.98379 127.923 6.16737 128.822 6.53454C129.71 6.90171 130.431 7.43314 130.984 8.12883C131.527 8.81486 131.803 9.65548 131.803 10.641C131.803 11.6169 131.527 12.4576 130.984 13.1532C130.431 13.8393 129.71 14.3707 128.822 14.7379C127.923 15.105 126.955 15.2886 125.909 15.2886Z" fill="#00F729"/>
<path d="M155.441 18.4869V2.78556H151.571V13.7523L142.072 2.78556H137.659V18.4869H141.529V7.5201L151.018 18.4869H155.441Z" fill="#00F729"/>
<path d="M199.588 32.954V26.0829H185.345C187.926 24.4045 190.646 22.6275 193.547 20.732C195.127 19.6855 196.328 18.5798 197.168 17.4544C198.008 16.3092 198.568 15.1837 198.868 14.0385C199.148 12.8933 199.308 11.7876 199.308 10.7017C199.308 8.76668 198.808 6.98965 197.828 5.37058C196.828 3.73176 195.387 2.44835 193.447 1.46111C191.527 0.49362 189.146 0 186.326 0C184.365 0 182.445 0.335661 180.584 0.987239C178.724 1.63882 177.044 2.4681 175.523 3.43559C174.023 4.40309 172.683 5.48905 171.522 6.69348L176.143 11.9456C179.784 8.60872 183.605 6.93042 187.606 6.93042C188.846 6.93042 189.866 7.28582 190.686 7.99664C191.487 8.6877 191.907 9.57622 191.907 10.6227C191.907 11.452 191.667 12.3405 191.187 13.2487C190.706 14.1768 189.926 15.006 188.826 15.7761L172.863 26.2606V32.954H199.588Z" fill="#00F729"/>
<path d="M199.588 32.954V26.0829H185.345C187.926 24.4045 190.646 22.6275 193.547 20.732C195.127 19.6855 196.328 18.5798 197.168 17.4544C198.008 16.3092 198.568 15.1837 198.868 14.0385C199.148 12.8933 199.308 11.7876 199.308 10.7017C199.308 8.76668 198.808 6.98965 197.828 5.37058C196.828 3.73176 195.387 2.44835 193.447 1.46111C191.527 0.49362 189.146 0 186.326 0C184.365 0 182.445 0.335661 180.584 0.987239C178.724 1.63882 177.044 2.4681 175.523 3.43559C174.023 4.40309 172.683 5.48905 171.522 6.69348L176.143 11.9456C179.784 8.60872 183.605 6.93042 187.606 6.93042C188.846 6.93042 189.866 7.28582 190.686 7.99664C191.487 8.6877 191.907 9.57622 191.907 10.6227C191.907 11.452 191.667 12.3405 191.187 13.2487C190.706 14.1768 189.926 15.006 188.826 15.7761L172.863 26.2606V32.954H199.588Z" fill="url(#paint0_linear_8_69)" fill-opacity="0.7"/>
<path d="M207.53 33.8228C208.61 33.8228 209.53 33.4477 210.311 32.6974C211.071 31.9273 211.451 31.0191 211.451 29.9528C211.451 28.8866 211.071 27.9586 210.311 27.2083C209.53 26.458 208.61 26.0829 207.53 26.0829C206.45 26.0829 205.53 26.458 204.749 27.2083C203.989 27.9586 203.609 28.8866 203.609 29.9528C203.609 31.0191 203.989 31.9273 204.749 32.6974C205.53 33.4477 206.45 33.8228 207.53 33.8228Z" fill="#00F729"/>
<path d="M207.53 33.8228C208.61 33.8228 209.53 33.4477 210.311 32.6974C211.071 31.9273 211.451 31.0191 211.451 29.9528C211.451 28.8866 211.071 27.9586 210.311 27.2083C209.53 26.458 208.61 26.0829 207.53 26.0829C206.45 26.0829 205.53 26.458 204.749 27.2083C203.989 27.9586 203.609 28.8866 203.609 29.9528C203.609 31.0191 203.989 31.9273 204.749 32.6974C205.53 33.4477 206.45 33.8228 207.53 33.8228Z" fill="url(#paint1_linear_8_69)" fill-opacity="0.7"/>
<path d="M235.216 33.8228C238.857 33.8228 242.157 33.0923 245.158 31.6311C248.139 30.17 250.539 28.1561 252.319 25.609C254.1 23.0422 255 20.1594 255 16.9213C255 13.6634 254.1 10.7807 252.319 8.23357C250.539 5.66675 248.139 3.67253 245.158 2.21142C242.157 0.730557 238.857 0 235.216 0C231.595 0 228.294 0.730557 225.294 2.21142C222.313 3.67253 219.913 5.66675 218.132 8.23357C216.352 10.7807 215.452 13.6634 215.452 16.9213C215.452 20.1594 216.352 23.0422 218.132 25.609C219.913 28.1561 222.313 30.17 225.294 31.6311C228.294 33.0923 231.595 33.8228 235.216 33.8228ZM235.216 26.4185C233.115 26.4185 231.155 26.0434 229.335 25.2931C227.514 24.523 226.054 23.4371 224.954 22.0154C223.853 20.5938 223.293 18.8958 223.293 16.9213C223.293 14.9271 223.853 13.229 224.954 11.8074C226.054 10.3858 227.514 9.29979 229.335 8.54949C231.155 7.77944 233.115 7.40429 235.216 7.40429C237.336 7.40429 239.297 7.77944 241.117 8.52975C242.917 9.28005 244.378 10.366 245.498 11.7876C246.598 13.1895 247.158 14.9073 247.158 16.9213C247.158 18.9155 246.598 20.6333 245.498 22.0549C244.378 23.4568 242.917 24.5428 241.117 25.2931C239.297 26.0434 237.336 26.4185 235.216 26.4185Z" fill="#00F729"/>
<path d="M235.216 33.8228C238.857 33.8228 242.157 33.0923 245.158 31.6311C248.139 30.17 250.539 28.1561 252.319 25.609C254.1 23.0422 255 20.1594 255 16.9213C255 13.6634 254.1 10.7807 252.319 8.23357C250.539 5.66675 248.139 3.67253 245.158 2.21142C242.157 0.730557 238.857 0 235.216 0C231.595 0 228.294 0.730557 225.294 2.21142C222.313 3.67253 219.913 5.66675 218.132 8.23357C216.352 10.7807 215.452 13.6634 215.452 16.9213C215.452 20.1594 216.352 23.0422 218.132 25.609C219.913 28.1561 222.313 30.17 225.294 31.6311C228.294 33.0923 231.595 33.8228 235.216 33.8228ZM235.216 26.4185C233.115 26.4185 231.155 26.0434 229.335 25.2931C227.514 24.523 226.054 23.4371 224.954 22.0154C223.853 20.5938 223.293 18.8958 223.293 16.9213C223.293 14.9271 223.853 13.229 224.954 11.8074C226.054 10.3858 227.514 9.29979 229.335 8.54949C231.155 7.77944 233.115 7.40429 235.216 7.40429C237.336 7.40429 239.297 7.77944 241.117 8.52975C242.917 9.28005 244.378 10.366 245.498 11.7876C246.598 13.1895 247.158 14.9073 247.158 16.9213C247.158 18.9155 246.598 20.6333 245.498 22.0549C244.378 23.4568 242.917 24.5428 241.117 25.2931C239.297 26.0434 237.336 26.4185 235.216 26.4185Z" fill="url(#paint2_linear_8_69)" fill-opacity="0.7"/>
<path d="M120.098 33.9659C119.763 33.9659 119.452 33.9049 119.165 33.7829C118.878 33.6537 118.629 33.4743 118.417 33.2447L118.284 33.8798H117.3L118.827 26.3451L119.872 26.1083L119.339 28.7347C119.749 28.462 120.193 28.3257 120.671 28.3257C121.115 28.3257 121.508 28.4369 121.85 28.6593C122.198 28.8746 122.475 29.1724 122.68 29.5527C122.885 29.9331 122.987 30.3636 122.987 30.8444C122.987 31.2749 122.912 31.6804 122.762 32.0607C122.611 32.441 122.403 32.7747 122.137 33.0617C121.877 33.3416 121.573 33.564 121.225 33.7291C120.876 33.8869 120.501 33.9659 120.098 33.9659ZM120.067 33.0294C120.436 33.0294 120.764 32.9361 121.051 32.7496C121.344 32.563 121.577 32.3119 121.747 31.9961C121.918 31.6732 122.003 31.3216 122.003 30.9413C122.003 30.6112 121.935 30.3206 121.799 30.0694C121.669 29.8111 121.484 29.6101 121.245 29.4666C121.006 29.3231 120.736 29.2514 120.436 29.2514C120.19 29.2514 119.954 29.2944 119.729 29.3805C119.51 29.4666 119.309 29.5958 119.124 29.768L118.622 32.2544C118.759 32.4912 118.957 32.6814 119.216 32.8249C119.476 32.9613 119.76 33.0294 120.067 33.0294Z" fill="#999999"/>
<path d="M123.094 36.1832C122.978 36.1832 122.865 36.1725 122.756 36.1509C122.647 36.1366 122.537 36.115 122.428 36.0863L122.623 35.1499C122.677 35.1714 122.746 35.1858 122.828 35.193C122.91 35.2073 122.995 35.2145 123.084 35.2145C123.309 35.2145 123.514 35.1535 123.699 35.0315C123.89 34.9095 124.064 34.7193 124.221 34.461L124.58 33.869L123.627 28.401H124.692L125.369 32.6419L127.869 28.401H128.975L125.194 34.7193C124.88 35.2432 124.559 35.6163 124.231 35.8388C123.91 36.0684 123.531 36.1832 123.094 36.1832Z" fill="#999999"/>
<path d="M132.954 33.8798L131.571 26.3451H132.667L133.774 32.7711L137.462 26.3451H138.6L134.204 33.8798H132.954Z" fill="#999999"/>
<path d="M139.167 33.9444C138.635 33.9444 138.204 33.808 137.876 33.5353C137.555 33.2555 137.395 32.8823 137.395 32.4159C137.395 32.0571 137.48 31.745 137.651 31.4795C137.829 31.2068 138.078 30.9987 138.399 30.8552C138.727 30.7045 139.109 30.6291 139.546 30.6291C139.827 30.6291 140.1 30.665 140.366 30.7368C140.639 30.8013 140.889 30.8946 141.114 31.0166L141.217 30.5215C141.305 30.0766 141.251 29.7465 141.053 29.5312C140.861 29.3088 140.527 29.1975 140.049 29.1975C139.844 29.1975 139.618 29.2298 139.372 29.2944C139.133 29.3518 138.85 29.4523 138.522 29.5958L138.266 28.767C138.641 28.6019 138.993 28.4835 139.321 28.4118C139.649 28.34 139.956 28.3041 140.243 28.3041C140.742 28.3041 141.152 28.3903 141.473 28.5625C141.794 28.7347 142.019 28.9858 142.149 29.3159C142.279 29.6389 142.296 30.0263 142.2 30.4784L141.524 33.8798H140.53L140.612 33.4815C140.387 33.6394 140.154 33.7578 139.915 33.8367C139.683 33.9085 139.434 33.9444 139.167 33.9444ZM139.485 33.1586C139.717 33.1586 139.939 33.1227 140.151 33.051C140.37 32.972 140.578 32.8572 140.776 32.7065L140.96 31.7701C140.585 31.5046 140.127 31.3718 139.587 31.3718C139.219 31.3718 138.918 31.4615 138.686 31.6409C138.46 31.8131 138.348 32.0428 138.348 32.3298C138.348 32.5881 138.447 32.7926 138.645 32.9433C138.85 33.0868 139.13 33.1586 139.485 33.1586Z" fill="#999999"/>
<path d="M142.656 33.8798L143.762 28.401H144.756L144.633 29.0253C144.825 28.7885 145.043 28.6055 145.289 28.4764C145.542 28.3472 145.808 28.2826 146.088 28.2826C146.327 28.2826 146.522 28.3221 146.672 28.401L146.488 29.3698C146.42 29.3267 146.321 29.2908 146.191 29.2621C146.068 29.2334 145.948 29.2191 145.832 29.2191C145.265 29.2191 144.791 29.524 144.408 30.134L143.65 33.8798H142.656Z" fill="#999999"/>
<path d="M149.116 33.9874C148.637 33.9874 148.211 33.8762 147.835 33.6537C147.466 33.4241 147.172 33.1084 146.954 32.7065C146.735 32.3047 146.626 31.8562 146.626 31.3611C146.626 30.9449 146.701 30.5538 146.851 30.1878C147.001 29.8147 147.206 29.4882 147.466 29.2083C147.732 28.9213 148.036 28.6988 148.378 28.5409C148.726 28.3759 149.092 28.2934 149.474 28.2934C149.952 28.2934 150.376 28.4082 150.745 28.6378C151.12 28.8603 151.418 29.1688 151.636 29.5635C151.855 29.9582 151.964 30.4067 151.964 30.909C151.964 31.3252 151.889 31.7198 151.739 32.093C151.588 32.4661 151.38 32.7962 151.114 33.0833C150.854 33.3631 150.554 33.5856 150.212 33.7506C149.87 33.9085 149.505 33.9874 149.116 33.9874ZM149.157 33.0402C149.409 33.0402 149.642 32.9864 149.853 32.8787C150.072 32.7711 150.263 32.6204 150.427 32.4267C150.598 32.2329 150.731 32.0105 150.827 31.7593C150.929 31.5082 150.98 31.2427 150.98 30.9628C150.98 30.6327 150.912 30.3385 150.776 30.0802C150.646 29.8147 150.461 29.6101 150.222 29.4666C149.99 29.3159 149.727 29.2406 149.433 29.2406C149.181 29.2406 148.945 29.2944 148.726 29.402C148.514 29.5097 148.323 29.6604 148.152 29.8541C147.982 30.0407 147.848 30.2631 147.753 30.5215C147.657 30.7726 147.609 31.0346 147.609 31.3072C147.609 31.6373 147.674 31.9351 147.804 32.2006C147.941 32.4661 148.125 32.6742 148.357 32.8249C148.596 32.9684 148.863 33.0402 149.157 33.0402Z" fill="#999999"/>
<path d="M154.493 33.9874C154.042 33.9874 153.608 33.9013 153.192 33.7291C152.775 33.5497 152.437 33.3093 152.177 33.0079L152.782 32.3406C153.041 32.6061 153.315 32.807 153.601 32.9433C153.895 33.0797 154.196 33.1478 154.503 33.1478C154.845 33.1478 155.125 33.0725 155.343 32.9218C155.562 32.7639 155.671 32.563 155.671 32.319C155.671 32.1468 155.613 32.0105 155.497 31.91C155.381 31.8024 155.196 31.7198 154.944 31.6624L154.052 31.4472C153.608 31.3467 153.277 31.1781 153.058 30.9413C152.847 30.6973 152.741 30.3887 152.741 30.0156C152.741 29.6711 152.823 29.3733 152.987 29.1222C153.151 28.8639 153.379 28.6665 153.673 28.5302C153.974 28.3867 154.322 28.3149 154.718 28.3149C155.121 28.3149 155.504 28.3867 155.866 28.5302C156.235 28.6737 156.573 28.8854 156.88 29.1652L156.296 29.8434C156.037 29.6137 155.767 29.4379 155.487 29.3159C155.207 29.1939 154.93 29.133 154.657 29.133C154.349 29.133 154.104 29.2047 153.919 29.3482C153.735 29.4917 153.642 29.6819 153.642 29.9187C153.642 30.0909 153.7 30.2273 153.817 30.3277C153.933 30.4282 154.124 30.5107 154.39 30.5753L155.282 30.7906C155.733 30.891 156.071 31.0597 156.296 31.2965C156.522 31.5333 156.634 31.8347 156.634 32.2006C156.634 32.5379 156.539 32.8429 156.347 33.1155C156.163 33.3882 155.907 33.6035 155.579 33.7614C155.258 33.9121 154.896 33.9874 154.493 33.9874Z" fill="#999999"/>
<defs>
<linearGradient id="paint0_linear_8_69" x1="213.261" y1="0" x2="213.261" y2="33.8228" gradientUnits="userSpaceOnUse">
<stop stop-color="#00F729"/>
<stop offset="1" stop-color="#008269"/>
</linearGradient>
<linearGradient id="paint1_linear_8_69" x1="213.261" y1="0" x2="213.261" y2="33.8228" gradientUnits="userSpaceOnUse">
<stop stop-color="#00F729"/>
<stop offset="1" stop-color="#008269"/>
</linearGradient>
<linearGradient id="paint2_linear_8_69" x1="213.261" y1="0" x2="213.261" y2="33.8228" gradientUnits="userSpaceOnUse">
<stop stop-color="#00F729"/>
<stop offset="1" stop-color="#008269"/>
</linearGradient>
</defs>
</svg>
